<svg id="visual" viewBox="0 0 900 600" width="900" height="600" xmlns="http://www.w3.org/2000/svg" xmlns:xlink="http://www.w3.org/1999/xlink" version="1.1"><g><g transform="translate(39 328)"><path d="M102.6 -34C119.2 17.7 109.4 77.3 72.2 105.9C34.9 134.5 -29.6 132.1 -69.5 101.7C-109.4 71.3 -124.6 12.9 -108.9 -37.5C-93.2 -88 -46.6 -130.6 -1.8 -130C43 -129.4 86.1 -85.7 102.6 -34Z" stroke="#FFFBEB" fill="none" stroke-width="20"></path></g><g transform="translate(743 107)"><path d="M112.2 -37.9C126.1 6.2 104.6 60.3 65.7 88C26.7 115.7 -29.7 117.1 -64.5 91.2C-99.4 65.3 -112.8 12.1 -98.5 -32.6C-84.1 -77.3 -42.1 -113.5 3.6 -114.7C49.2 -115.8 98.4 -81.9 112.2 -37.9Z" stroke="#FFFBEB" fill="none" stroke-width="20"></path></g></g></svg>