<svg width="118" height="53" viewBox="0 0 118 53" fill="none" xmlns="http://www.w3.org/2000/svg">
<path d="M25.4646 18.0286V42H21.5653V18.0286H25.4646ZM21.3438 11.6702C21.3438 11.0056 21.5284 10.4443 21.8977 9.98647C22.2669 9.52861 22.8208 9.29967 23.5593 9.29967C24.2978 9.29967 24.8516 9.52861 25.2209 9.98647C25.6049 10.4443 25.7969 11.0056 25.7969 11.6702C25.7969 12.3053 25.6049 12.8518 25.2209 13.3097C24.8516 13.7528 24.2978 13.9743 23.5593 13.9743C22.8208 13.9743 22.2669 13.7528 21.8977 13.3097C21.5284 12.8518 21.3438 12.3053 21.3438 11.6702ZM32.4132 21.7949V42H28.4918V18.0286H32.2802L32.4132 21.7949ZM38.3728 17.8957L38.3949 21.7063C38.07 21.6325 37.7746 21.5881 37.5088 21.5734C37.2577 21.5438 36.9623 21.5291 36.6226 21.5291C35.8841 21.5291 35.2342 21.6768 34.673 21.9722C34.1265 22.2676 33.6538 22.6811 33.2551 23.2128C32.8563 23.7445 32.5387 24.3796 32.3024 25.1181C32.0661 25.8418 31.9036 26.6394 31.815 27.5108L30.7959 28.1755C30.7959 26.728 30.9067 25.3692 31.1282 24.099C31.3645 22.8288 31.7264 21.7063 32.2138 20.7315C32.7012 19.7419 33.3215 18.9739 34.0748 18.4274C34.8428 17.8662 35.7585 17.5855 36.822 17.5855C37.0583 17.5855 37.3463 17.6225 37.686 17.6963C38.0405 17.7554 38.2694 17.8218 38.3728 17.8957ZM43.3496 18.0286V42H39.4504V18.0286H43.3496ZM39.2288 11.6702C39.2288 11.0056 39.4135 10.4443 39.7827 9.98647C40.152 9.52861 40.7058 9.29967 41.4443 9.29967C42.1828 9.29967 42.7367 9.52861 43.1059 9.98647C43.4899 10.4443 43.6819 11.0056 43.6819 11.6702C43.6819 12.3053 43.4899 12.8518 43.1059 13.3097C42.7367 13.7528 42.1828 13.9743 41.4443 13.9743C40.7058 13.9743 40.152 13.7528 39.7827 13.3097C39.4135 12.8518 39.2288 12.3053 39.2288 11.6702ZM58.008 35.8632C58.008 35.2576 57.8603 34.7259 57.565 34.268C57.2696 33.8101 56.7822 33.3671 56.1027 32.9387C55.4381 32.5104 54.5371 32.0525 53.3999 31.5651C52.2921 31.1073 51.2952 30.6568 50.409 30.2137C49.5376 29.7558 48.7991 29.2611 48.1935 28.7293C47.588 28.1976 47.1227 27.5847 46.7978 26.8905C46.4876 26.1815 46.3325 25.3471 46.3325 24.387C46.3325 23.427 46.5098 22.5408 46.8642 21.7285C47.2335 20.9013 47.7504 20.1776 48.4151 19.5573C49.0797 18.937 49.8773 18.4569 50.8078 18.1172C51.7383 17.7628 52.7795 17.5855 53.9316 17.5855C55.571 17.5855 56.9668 17.9031 58.1188 18.5382C59.2709 19.1733 60.1497 20.0447 60.7552 21.1524C61.3756 22.2454 61.6857 23.4787 61.6857 24.8523H57.7865C57.7865 24.1876 57.6388 23.5599 57.3434 22.9691C57.048 22.3783 56.6123 21.8983 56.0363 21.5291C55.4603 21.145 54.7587 20.953 53.9316 20.953C53.0602 20.953 52.3512 21.1081 51.8047 21.4183C51.2582 21.7285 50.8595 22.1346 50.6084 22.6368C50.3721 23.1242 50.2539 23.6633 50.2539 24.2541C50.2539 24.6972 50.313 25.0812 50.4311 25.4061C50.5641 25.7163 50.7856 26.0117 51.0958 26.2923C51.4059 26.5582 51.8269 26.8388 52.3586 27.1342C52.9051 27.4148 53.5993 27.7398 54.4411 28.109C56.0658 28.7441 57.432 29.3866 58.5398 30.0365C59.6475 30.6863 60.4894 31.447 61.0654 32.3184C61.6414 33.1898 61.9294 34.268 61.9294 35.553C61.9294 36.6016 61.7374 37.5543 61.3534 38.4109C60.9842 39.2528 60.4524 39.9765 59.7583 40.5821C59.0641 41.1877 58.2296 41.6529 57.2548 41.9778C56.2947 42.288 55.2166 42.4431 54.0202 42.4431C52.2183 42.4431 50.6896 42.0886 49.4342 41.3797C48.1935 40.6559 47.2482 39.7181 46.5984 38.566C45.9633 37.3992 45.6457 36.1512 45.6457 34.8219H49.5671C49.6114 35.9444 49.8625 36.8158 50.3204 37.4361C50.793 38.0565 51.3616 38.4848 52.0263 38.7211C52.6909 38.9574 53.3556 39.0756 54.0202 39.0756C54.8916 39.0756 55.6227 38.95 56.2135 38.699C56.8043 38.4331 57.2474 38.0565 57.5428 37.5691C57.853 37.0817 58.008 36.513 58.008 35.8632Z" fill="#251749"/>
<path d="M2.50644 33.3321C6.3501 36.4489 13.4473 40.7196 22.5623 37.9288C33.9561 34.4404 25.7628 25.3172 44.4621 27.1664C63.6815 29.067 64.0359 42.1825 77.506 45.7997C90.9275 49.4039 83.1044 25.3849 97.2115 30.3625C108.497 34.3445 114.02 43.9236 115.371 48.2154" stroke="#251749" stroke-width="3.54475" stroke-linecap="round"/>
<path d="M28.2339 14.8879C30.7861 16.873 34.0237 15.715 35.3234 14.8879" stroke="#251749" stroke-width="2.12685" stroke-linecap="round"/>
</svg>
