<svg width="813" height="302" viewBox="0 0 813 302" fill="none" xmlns="http://www.w3.org/2000/svg">
<path d="M3.41763 211.993V178.125H14.1997V211.993H3.41763ZM8.8197 174.178C7.30565 174.178 6.00475 173.679 4.91698 172.679C3.82922 171.665 3.28534 170.445 3.28534 169.019C3.28534 167.608 3.82922 166.402 4.91698 165.403C6.00475 164.388 7.30565 163.881 8.8197 163.881C10.3484 163.881 11.6494 164.388 12.7224 165.403C13.8102 166.402 14.3541 167.608 14.3541 169.019C14.3541 170.445 13.8102 171.665 12.7224 172.679C11.6494 173.679 10.3484 174.178 8.8197 174.178ZM21.0625 211.993V178.125H31.5359V184.299H31.8887C32.5061 182.065 33.513 180.404 34.9095 179.316C36.3059 178.213 37.9302 177.662 39.7824 177.662C40.2821 177.662 40.7966 177.699 41.3258 177.772C41.855 177.831 42.3474 177.927 42.8031 178.059V187.43C42.2886 187.254 41.6124 187.114 40.7746 187.011C39.9514 186.908 39.2164 186.857 38.5697 186.857C37.2908 186.857 36.1369 187.143 35.1079 187.717C34.0937 188.275 33.2925 189.062 32.7046 190.076C32.1313 191.075 31.8446 192.251 31.8446 193.604V211.993H21.0625ZM90.1043 188.466L80.2042 188.731C80.1013 188.025 79.822 187.401 79.3663 186.857C78.9106 186.298 78.3153 185.864 77.5803 185.556C76.86 185.232 76.0221 185.071 75.0667 185.071C73.8172 185.071 72.7515 185.321 71.8695 185.82C71.0023 186.32 70.576 186.996 70.5907 187.849C70.576 188.51 70.8406 189.084 71.3844 189.569C71.943 190.054 72.9352 190.443 74.3611 190.737L80.8877 191.972C84.2686 192.619 86.7822 193.692 88.4285 195.191C90.0896 196.691 90.9274 198.675 90.9421 201.145C90.9274 203.467 90.2366 205.488 88.8695 207.208C87.5172 208.928 85.665 210.266 83.3131 211.221C80.9612 212.162 78.2712 212.632 75.2431 212.632C70.4069 212.632 66.5924 211.64 63.7995 209.656C61.0213 207.656 59.4338 204.981 59.0369 201.63L69.6867 201.365C69.9218 202.6 70.5319 203.541 71.5167 204.187C72.5016 204.834 73.7584 205.158 75.2872 205.158C76.6689 205.158 77.7934 204.9 78.6607 204.386C79.528 203.871 79.969 203.188 79.9837 202.335C79.969 201.571 79.6309 200.961 78.9694 200.505C78.3079 200.035 77.2716 199.667 75.8604 199.403L69.9512 198.278C66.5557 197.661 64.0273 196.522 62.3663 194.861C60.7053 193.185 59.8821 191.053 59.8968 188.466C59.8821 186.203 60.4848 184.27 61.7048 182.667C62.9249 181.05 64.6594 179.816 66.9085 178.963C69.1575 178.11 71.8107 177.684 74.8682 177.684C79.4545 177.684 83.0706 178.647 85.7165 180.573C88.3624 182.484 89.825 185.115 90.1043 188.466ZM139.158 188.466L129.258 188.731C129.155 188.025 128.876 187.401 128.42 186.857C127.965 186.298 127.369 185.864 126.634 185.556C125.914 185.232 125.076 185.071 124.121 185.071C122.871 185.071 121.806 185.321 120.924 185.82C120.056 186.32 119.63 186.996 119.645 187.849C119.63 188.51 119.895 189.084 120.439 189.569C120.997 190.054 121.989 190.443 123.415 190.737L129.942 191.972C133.323 192.619 135.836 193.692 137.483 195.191C139.144 196.691 139.982 198.675 139.996 201.145C139.982 203.467 139.291 205.488 137.924 207.208C136.571 208.928 134.719 210.266 132.367 211.221C130.015 212.162 127.325 212.632 124.297 212.632C119.461 212.632 115.646 211.64 112.854 209.656C110.075 207.656 108.488 204.981 108.091 201.63L118.741 201.365C118.976 202.6 119.586 203.541 120.571 204.187C121.556 204.834 122.812 205.158 124.341 205.158C125.723 205.158 126.848 204.9 127.715 204.386C128.582 203.871 129.023 203.188 129.038 202.335C129.023 201.571 128.685 200.961 128.023 200.505C127.362 200.035 126.326 199.667 124.915 199.403L119.005 198.278C115.61 197.661 113.081 196.522 111.42 194.861C109.759 193.185 108.936 191.053 108.951 188.466C108.936 186.203 109.539 184.27 110.759 182.667C111.979 181.05 113.713 179.816 115.963 178.963C118.212 178.11 120.865 177.684 123.922 177.684C128.509 177.684 132.125 178.647 134.771 180.573C137.416 182.484 138.879 185.115 139.158 188.466ZM161.114 212.632C157.542 212.632 154.477 211.897 151.919 210.427C149.376 208.957 147.421 206.914 146.054 204.298C144.687 201.666 144.004 198.624 144.004 195.169C144.004 191.7 144.687 188.657 146.054 186.041C147.436 183.41 149.398 181.359 151.941 179.889C154.499 178.419 157.549 177.684 161.092 177.684C164.223 177.684 166.95 178.25 169.272 179.382C171.609 180.514 173.432 182.116 174.74 184.189C176.063 186.247 176.761 188.665 176.835 191.443H166.758C166.553 189.708 165.965 188.349 164.995 187.364C164.039 186.379 162.79 185.886 161.246 185.886C159.997 185.886 158.902 186.239 157.961 186.945C157.02 187.636 156.285 188.665 155.756 190.032C155.241 191.384 154.984 193.06 154.984 195.059C154.984 197.058 155.241 198.749 155.756 200.13C156.285 201.497 157.02 202.534 157.961 203.239C158.902 203.93 159.997 204.276 161.246 204.276C162.246 204.276 163.128 204.062 163.892 203.636C164.671 203.21 165.311 202.585 165.81 201.762C166.31 200.924 166.626 199.91 166.758 198.719H176.835C176.732 201.512 176.034 203.952 174.74 206.039C173.461 208.127 171.661 209.751 169.338 210.912C167.03 212.059 164.289 212.632 161.114 212.632ZM191.9 212.566C189.739 212.566 187.821 212.206 186.145 211.486C184.484 210.751 183.169 209.648 182.198 208.178C181.243 206.694 180.765 204.834 180.765 202.6C180.765 200.718 181.096 199.131 181.757 197.837C182.419 196.544 183.33 195.493 184.492 194.684C185.653 193.876 186.991 193.266 188.505 192.854C190.019 192.428 191.636 192.141 193.355 191.994C195.281 191.818 196.832 191.634 198.008 191.443C199.184 191.237 200.036 190.95 200.565 190.583C201.109 190.201 201.381 189.664 201.381 188.973V188.863C201.381 187.731 200.992 186.857 200.213 186.239C199.434 185.622 198.383 185.313 197.06 185.313C195.634 185.313 194.487 185.622 193.62 186.239C192.753 186.857 192.201 187.709 191.966 188.797L182.022 188.444C182.316 186.386 183.073 184.549 184.293 182.932C185.528 181.3 187.218 180.021 189.364 179.095C191.525 178.155 194.12 177.684 197.148 177.684C199.309 177.684 201.3 177.941 203.123 178.456C204.946 178.956 206.533 179.691 207.886 180.661C209.238 181.616 210.282 182.792 211.017 184.189C211.767 185.585 212.141 187.18 212.141 188.973V211.993H201.999V207.274H201.734C201.131 208.421 200.36 209.391 199.419 210.185C198.493 210.979 197.398 211.574 196.134 211.971C194.884 212.368 193.473 212.566 191.9 212.566ZM195.23 205.51C196.391 205.51 197.435 205.275 198.361 204.805C199.301 204.334 200.051 203.688 200.61 202.864C201.168 202.027 201.447 201.056 201.447 199.954V196.735C201.139 196.896 200.764 197.043 200.323 197.176C199.897 197.308 199.426 197.433 198.912 197.551C198.397 197.668 197.868 197.771 197.324 197.859C196.78 197.947 196.259 198.028 195.759 198.102C194.744 198.263 193.877 198.513 193.157 198.851C192.451 199.19 191.907 199.631 191.525 200.174C191.158 200.704 190.974 201.336 190.974 202.071C190.974 203.188 191.371 204.04 192.165 204.628C192.973 205.216 193.995 205.51 195.23 205.51ZM229.516 192.678V211.993H218.734V178.125H228.987V184.343H229.362C230.111 182.27 231.39 180.646 233.198 179.47C235.006 178.279 237.16 177.684 239.659 177.684C242.04 177.684 244.105 178.221 245.855 179.294C247.619 180.352 248.986 181.837 249.956 183.748C250.941 185.644 251.426 187.864 251.411 190.407V211.993H240.629V192.523C240.644 190.642 240.166 189.172 239.196 188.113C238.24 187.055 236.91 186.526 235.205 186.526C234.073 186.526 233.073 186.776 232.206 187.276C231.354 187.761 230.692 188.459 230.222 189.37C229.766 190.282 229.531 191.384 229.516 192.678ZM268.869 192.678V211.993H258.086V178.125H268.339V184.343H268.714C269.464 182.27 270.743 180.646 272.551 179.47C274.359 178.279 276.512 177.684 279.011 177.684C281.393 177.684 283.458 178.221 285.207 179.294C286.971 180.352 288.338 181.837 289.308 183.748C290.293 185.644 290.778 187.864 290.763 190.407V211.993H279.981V192.523C279.996 190.642 279.518 189.172 278.548 188.113C277.593 187.055 276.262 186.526 274.557 186.526C273.425 186.526 272.426 186.776 271.559 187.276C270.706 187.761 270.045 188.459 269.574 189.37C269.118 190.282 268.883 191.384 268.869 192.678ZM313.27 212.632C309.728 212.632 306.67 211.934 304.098 210.538C301.54 209.126 299.57 207.12 298.189 204.518C296.821 201.902 296.138 198.793 296.138 195.191C296.138 191.693 296.829 188.635 298.211 186.019C299.592 183.388 301.54 181.344 304.054 179.889C306.567 178.419 309.529 177.684 312.939 177.684C315.35 177.684 317.555 178.059 319.554 178.809C321.553 179.558 323.281 180.668 324.736 182.138C326.191 183.608 327.323 185.423 328.131 187.584C328.94 189.73 329.344 192.193 329.344 194.971V197.661H299.908V191.399H319.312C319.297 190.252 319.025 189.231 318.496 188.334C317.967 187.437 317.239 186.739 316.313 186.239C315.402 185.725 314.351 185.468 313.16 185.468C311.955 185.468 310.874 185.739 309.919 186.283C308.963 186.813 308.206 187.54 307.648 188.466C307.089 189.378 306.795 190.414 306.766 191.575V197.947C306.766 199.329 307.038 200.542 307.582 201.586C308.125 202.615 308.897 203.416 309.897 203.989C310.896 204.562 312.087 204.849 313.469 204.849C314.424 204.849 315.291 204.717 316.07 204.452C316.85 204.187 317.518 203.798 318.077 203.283C318.636 202.769 319.054 202.137 319.334 201.387L329.234 201.674C328.822 203.893 327.918 205.826 326.522 207.473C325.14 209.104 323.325 210.376 321.076 211.287C318.827 212.184 316.225 212.632 313.27 212.632ZM334.851 211.993V178.125H345.324V184.299H345.677C346.295 182.065 347.301 180.404 348.698 179.316C350.094 178.213 351.719 177.662 353.571 177.662C354.071 177.662 354.585 177.699 355.114 177.772C355.643 177.831 356.136 177.927 356.592 178.059V187.43C356.077 187.254 355.401 187.114 354.563 187.011C353.74 186.908 353.005 186.857 352.358 186.857C351.079 186.857 349.925 187.143 348.896 187.717C347.882 188.275 347.081 189.062 346.493 190.076C345.92 191.075 345.633 192.251 345.633 193.604V211.993H334.851ZM390.553 188.466L380.653 188.731C380.55 188.025 380.271 187.401 379.815 186.857C379.359 186.298 378.764 185.864 378.029 185.556C377.309 185.232 376.471 185.071 375.515 185.071C374.266 185.071 373.2 185.321 372.318 185.82C371.451 186.32 371.025 186.996 371.039 187.849C371.025 188.51 371.289 189.084 371.833 189.569C372.392 190.054 373.384 190.443 374.81 190.737L381.336 191.972C384.717 192.619 387.231 193.692 388.877 195.191C390.538 196.691 391.376 198.675 391.391 201.145C391.376 203.467 390.685 205.488 389.318 207.208C387.966 208.928 386.114 210.266 383.762 211.221C381.41 212.162 378.72 212.632 375.692 212.632C370.856 212.632 367.041 211.64 364.248 209.656C361.47 207.656 359.882 204.981 359.485 201.63L370.135 201.365C370.37 202.6 370.98 203.541 371.965 204.187C372.95 204.834 374.207 205.158 375.736 205.158C377.118 205.158 378.242 204.9 379.109 204.386C379.977 203.871 380.418 203.188 380.432 202.335C380.418 201.571 380.079 200.961 379.418 200.505C378.757 200.035 377.72 199.667 376.309 199.403L370.4 198.278C367.004 197.661 364.476 196.522 362.815 194.861C361.154 193.185 360.331 191.053 360.345 188.466C360.331 186.203 360.933 184.27 362.153 182.667C363.374 181.05 365.108 179.816 367.357 178.963C369.606 178.11 372.259 177.684 375.317 177.684C379.903 177.684 383.519 178.647 386.165 180.573C388.811 182.484 390.274 185.115 390.553 188.466ZM266.421 287.566C264.26 287.566 262.342 287.206 260.666 286.486C259.005 285.751 257.69 284.648 256.719 283.178C255.764 281.694 255.286 279.834 255.286 277.6C255.286 275.718 255.617 274.131 256.278 272.837C256.94 271.544 257.851 270.493 259.013 269.684C260.174 268.876 261.511 268.266 263.026 267.854C264.54 267.428 266.157 267.141 267.876 266.994C269.802 266.818 271.353 266.634 272.529 266.443C273.705 266.237 274.557 265.95 275.086 265.583C275.63 265.201 275.902 264.664 275.902 263.973V263.863C275.902 262.731 275.513 261.857 274.734 261.239C273.955 260.622 272.904 260.313 271.581 260.313C270.155 260.313 269.008 260.622 268.141 261.239C267.274 261.857 266.722 262.709 266.487 263.797L256.543 263.444C256.837 261.386 257.594 259.549 258.814 257.932C260.049 256.3 261.739 255.021 263.885 254.095C266.046 253.155 268.641 252.684 271.669 252.684C273.83 252.684 275.821 252.941 277.644 253.456C279.467 253.956 281.054 254.691 282.407 255.661C283.759 256.616 284.803 257.792 285.538 259.189C286.287 260.585 286.662 262.18 286.662 263.973V286.993H276.52V282.274H276.255C275.652 283.421 274.881 284.391 273.94 285.185C273.014 285.979 271.919 286.574 270.655 286.971C269.405 287.368 267.994 287.566 266.421 287.566ZM269.751 280.51C270.912 280.51 271.955 280.275 272.882 279.805C273.822 279.334 274.572 278.688 275.131 277.864C275.689 277.027 275.968 276.056 275.968 274.954V271.735C275.66 271.896 275.285 272.043 274.844 272.176C274.418 272.308 273.947 272.433 273.433 272.551C272.918 272.668 272.389 272.771 271.845 272.859C271.301 272.947 270.78 273.028 270.28 273.102C269.265 273.263 268.398 273.513 267.678 273.851C266.972 274.19 266.428 274.631 266.046 275.174C265.679 275.704 265.495 276.336 265.495 277.071C265.495 278.188 265.892 279.04 266.686 279.628C267.494 280.216 268.516 280.51 269.751 280.51ZM304.037 267.678V286.993H293.255V253.125H303.508V259.343H303.883C304.632 257.27 305.911 255.646 307.719 254.47C309.527 253.279 311.681 252.684 314.18 252.684C316.561 252.684 318.626 253.221 320.376 254.294C322.14 255.352 323.507 256.837 324.477 258.748C325.462 260.644 325.947 262.864 325.932 265.407V286.993H315.15V267.523C315.165 265.642 314.687 264.172 313.717 263.113C312.761 262.055 311.431 261.526 309.726 261.526C308.594 261.526 307.594 261.776 306.727 262.276C305.875 262.761 305.213 263.459 304.743 264.37C304.287 265.282 304.052 266.384 304.037 267.678ZM344.977 287.478C342.478 287.478 340.207 286.831 338.164 285.538C336.121 284.244 334.489 282.304 333.269 279.717C332.049 277.129 331.439 273.918 331.439 270.081C331.439 266.097 332.071 262.819 333.335 260.247C334.599 257.675 336.253 255.771 338.296 254.536C340.354 253.302 342.566 252.684 344.933 252.684C346.712 252.684 348.233 252.993 349.497 253.61C350.761 254.213 351.805 254.992 352.628 255.947C353.451 256.903 354.076 257.895 354.502 258.924H354.723V241.836H365.505V286.993H354.833V281.503H354.502C354.047 282.546 353.4 283.524 352.562 284.435C351.724 285.346 350.673 286.081 349.409 286.64C348.16 287.199 346.682 287.478 344.977 287.478ZM348.725 279.077C350.034 279.077 351.151 278.71 352.077 277.975C353.003 277.225 353.716 276.174 354.216 274.822C354.716 273.469 354.965 271.882 354.965 270.059C354.965 268.207 354.716 266.612 354.216 265.274C353.731 263.937 353.018 262.908 352.077 262.187C351.151 261.467 350.034 261.107 348.725 261.107C347.388 261.107 346.256 261.474 345.33 262.209C344.404 262.944 343.698 263.981 343.213 265.318C342.743 266.656 342.508 268.236 342.508 270.059C342.508 271.882 342.75 273.469 343.235 274.822C343.72 276.174 344.419 277.225 345.33 277.975C346.256 278.71 347.388 279.077 348.725 279.077ZM415.231 263.466L405.331 263.731C405.228 263.025 404.949 262.401 404.494 261.857C404.038 261.298 403.443 260.864 402.708 260.556C401.987 260.232 401.149 260.071 400.194 260.071C398.944 260.071 397.879 260.321 396.997 260.82C396.129 261.32 395.703 261.996 395.718 262.849C395.703 263.51 395.968 264.084 396.512 264.569C397.07 265.054 398.062 265.443 399.488 265.737L406.015 266.972C409.396 267.619 411.909 268.692 413.556 270.191C415.217 271.691 416.055 273.675 416.069 276.145C416.055 278.467 415.364 280.488 413.997 282.208C412.644 283.928 410.792 285.266 408.44 286.221C406.088 287.162 403.398 287.632 400.37 287.632C395.534 287.632 391.72 286.64 388.927 284.656C386.149 282.656 384.561 279.981 384.164 276.63L394.814 276.365C395.049 277.6 395.659 278.541 396.644 279.187C397.629 279.834 398.886 280.158 400.414 280.158C401.796 280.158 402.921 279.9 403.788 279.386C404.655 278.871 405.096 278.188 405.111 277.335C405.096 276.571 404.758 275.961 404.097 275.505C403.435 275.035 402.399 274.667 400.988 274.403L395.078 273.278C391.683 272.661 389.155 271.522 387.494 269.861C385.832 268.185 385.009 266.053 385.024 263.466C385.009 261.203 385.612 259.27 386.832 257.667C388.052 256.05 389.787 254.816 392.036 253.963C394.285 253.11 396.938 252.684 399.995 252.684C404.582 252.684 408.198 253.647 410.844 255.573C413.49 257.484 414.952 260.115 415.231 263.466ZM437.187 287.632C433.63 287.632 430.572 286.905 428.015 285.449C425.472 283.979 423.509 281.936 422.127 279.32C420.76 276.688 420.077 273.638 420.077 270.169C420.077 266.685 420.76 263.635 422.127 261.019C423.509 258.388 425.472 256.344 428.015 254.889C430.572 253.419 433.63 252.684 437.187 252.684C440.744 252.684 443.794 253.419 446.337 254.889C448.895 256.344 450.858 258.388 452.225 261.019C453.606 263.635 454.297 266.685 454.297 270.169C454.297 273.638 453.606 276.688 452.225 279.32C450.858 281.936 448.895 283.979 446.337 285.449C443.794 286.905 440.744 287.632 437.187 287.632ZM437.253 279.496C438.547 279.496 439.642 279.099 440.539 278.305C441.435 277.512 442.119 276.409 442.589 274.998C443.074 273.587 443.317 271.955 443.317 270.103C443.317 268.222 443.074 266.575 442.589 265.164C442.119 263.753 441.435 262.65 440.539 261.857C439.642 261.063 438.547 260.666 437.253 260.666C435.916 260.666 434.784 261.063 433.858 261.857C432.946 262.65 432.248 263.753 431.763 265.164C431.293 266.575 431.057 268.222 431.057 270.103C431.057 271.955 431.293 273.587 431.763 274.998C432.248 276.409 432.946 277.512 433.858 278.305C434.784 279.099 435.916 279.496 437.253 279.496ZM470.603 241.836V286.993H459.821V241.836H470.603ZM499.316 272.374V253.125H510.076V286.993H499.801V280.687H499.449C498.699 282.759 497.42 284.406 495.612 285.626C493.819 286.831 491.651 287.434 489.108 287.434C486.8 287.434 484.771 286.905 483.022 285.846C481.273 284.788 479.913 283.311 478.943 281.414C477.973 279.503 477.48 277.269 477.466 274.711V253.125H488.248V272.595C488.262 274.432 488.747 275.88 489.703 276.938C490.658 277.997 491.959 278.526 493.606 278.526C494.679 278.526 495.641 278.291 496.494 277.82C497.361 277.335 498.045 276.637 498.545 275.726C499.059 274.8 499.316 273.682 499.316 272.374ZM536.056 253.125V261.063H514.69V253.125H536.056ZM519.166 245.011H529.948V276.343C529.948 277.004 530.051 277.541 530.257 277.953C530.477 278.349 530.793 278.636 531.205 278.813C531.617 278.974 532.109 279.055 532.682 279.055C533.094 279.055 533.528 279.018 533.983 278.945C534.454 278.857 534.806 278.783 535.042 278.724L536.673 286.508C536.159 286.655 535.431 286.838 534.49 287.059C533.564 287.279 532.455 287.419 531.161 287.478C528.633 287.595 526.464 287.301 524.656 286.596C522.863 285.876 521.489 284.758 520.533 283.244C519.592 281.73 519.137 279.827 519.166 277.534V245.011ZM541.557 286.993V253.125H552.339V286.993H541.557ZM546.959 249.178C545.445 249.178 544.144 248.679 543.057 247.679C541.969 246.665 541.425 245.445 541.425 244.019C541.425 242.608 541.969 241.402 543.057 240.403C544.144 239.388 545.445 238.881 546.959 238.881C548.488 238.881 549.789 239.388 550.862 240.403C551.95 241.402 552.494 242.608 552.494 244.019C552.494 245.445 551.95 246.665 550.862 247.679C549.789 248.679 548.488 249.178 546.959 249.178ZM575.011 287.632C571.454 287.632 568.397 286.905 565.839 285.449C563.296 283.979 561.333 281.936 559.952 279.32C558.585 276.688 557.901 273.638 557.901 270.169C557.901 266.685 558.585 263.635 559.952 261.019C561.333 258.388 563.296 256.344 565.839 254.889C568.397 253.419 571.454 252.684 575.011 252.684C578.569 252.684 581.619 253.419 584.162 254.889C586.72 256.344 588.682 258.388 590.049 261.019C591.431 263.635 592.122 266.685 592.122 270.169C592.122 273.638 591.431 276.688 590.049 279.32C588.682 281.936 586.72 283.979 584.162 285.449C581.619 286.905 578.569 287.632 575.011 287.632ZM575.078 279.496C576.371 279.496 577.466 279.099 578.363 278.305C579.26 277.512 579.943 276.409 580.413 274.998C580.899 273.587 581.141 271.955 581.141 270.103C581.141 268.222 580.899 266.575 580.413 265.164C579.943 263.753 579.26 262.65 578.363 261.857C577.466 261.063 576.371 260.666 575.078 260.666C573.74 260.666 572.608 261.063 571.682 261.857C570.771 262.65 570.072 263.753 569.587 265.164C569.117 266.575 568.882 268.222 568.882 270.103C568.882 271.955 569.117 273.587 569.587 274.998C570.072 276.409 570.771 277.512 571.682 278.305C572.608 279.099 573.74 279.496 575.078 279.496ZM608.427 267.678V286.993H597.645V253.125H607.898V259.343H608.273C609.022 257.27 610.301 255.646 612.109 254.47C613.917 253.279 616.071 252.684 618.57 252.684C620.951 252.684 623.016 253.221 624.766 254.294C626.529 255.352 627.897 256.837 628.867 258.748C629.852 260.644 630.337 262.864 630.322 265.407V286.993H619.54V267.523C619.555 265.642 619.077 264.172 618.107 263.113C617.151 262.055 615.821 261.526 614.116 261.526C612.984 261.526 611.984 261.776 611.117 262.276C610.264 262.761 609.603 263.459 609.133 264.37C608.677 265.282 608.442 266.384 608.427 267.678ZM666.565 263.466L656.665 263.731C656.562 263.025 656.283 262.401 655.827 261.857C655.372 261.298 654.776 260.864 654.041 260.556C653.321 260.232 652.483 260.071 651.528 260.071C650.278 260.071 649.213 260.321 648.331 260.82C647.463 261.32 647.037 261.996 647.052 262.849C647.037 263.51 647.302 264.084 647.846 264.569C648.404 265.054 649.396 265.443 650.822 265.737L657.349 266.972C660.73 267.619 663.243 268.692 664.89 270.191C666.551 271.691 667.389 273.675 667.403 276.145C667.389 278.467 666.698 280.488 665.331 282.208C663.978 283.928 662.126 285.266 659.774 286.221C657.422 287.162 654.732 287.632 651.704 287.632C646.868 287.632 643.054 286.64 640.261 284.656C637.482 282.656 635.895 279.981 635.498 276.63L646.148 276.365C646.383 277.6 646.993 278.541 647.978 279.187C648.963 279.834 650.22 280.158 651.748 280.158C653.13 280.158 654.255 279.9 655.122 279.386C655.989 278.871 656.43 278.188 656.445 277.335C656.43 276.571 656.092 275.961 655.431 275.505C654.769 275.035 653.733 274.667 652.322 274.403L646.412 273.278C643.017 272.661 640.488 271.522 638.827 269.861C637.166 268.185 636.343 266.053 636.358 263.466C636.343 261.203 636.946 259.27 638.166 257.667C639.386 256.05 641.121 254.816 643.37 253.963C645.619 253.11 648.272 252.684 651.329 252.684C655.916 252.684 659.532 253.647 662.178 255.573C664.824 257.484 666.286 260.115 666.565 263.466Z" fill="white"/>
<path d="M37.5131 217.964C46.029 186.488 92.3825 118.308 190.8 101.868C332.121 78.2601 308.446 302.138 393.888 291.05C478.616 280.055 507.397 140.674 654.216 159.107C771.671 173.854 805.562 70.8222 807.826 17.463" stroke="#FFFBEB" stroke-width="5.821" stroke-linecap="round"/>
<circle cx="807.826" cy="5.17422" r="5.17422" fill="#FFFBEB"/>
</svg>
